<svg height="512pt" viewBox="0 0 512 512.00025" width="512pt" xmlns="http://www.w3.org/2000/svg"><path d="m256 211c-8.289062 0-15-6.707031-15-15v-30c0-8.277344-6.722656-15-15-15h-30c-8.289062 0-15-6.707031-15-15 0-8.289062 6.710938-15 15-15h30c24.8125 0 45 20.1875 45 45v30c0 8.292969-6.707031 15-15 15zm0 0" fill="#e63950"/><path d="m45 211c-8.289062 0-15-6.707031-15-15v-30c0-24.8125 21.1875-45 46-45h35.128906c8.289063 0 15 6.710938 15 15 0 8.292969-6.710937 15-15 15h-35.128906c-8.277344 0-16 6.722656-16 15v30c0 8.292969-6.707031 15-15 15zm0 0" fill="#ff637b"/><path d="m436 422c-8.289062 0-15-6.707031-15-15v-30c0-8.277344-6.722656-15-15-15h-30c-8.289062 0-15-6.707031-15-15 0-8.289062 6.710938-15 15-15h30c24.8125 0 45 20.1875 45 45v30c0 8.292969-6.707031 15-15 15zm0 0" fill="#ae2538"/><path d="m106 512h-30c-41.351562 0-76-33.648438-76-75 0-8.289062 6.710938-15 15-15h91c24.8125 0 45 20.1875 45 45s-20.1875 45-45 45zm0 0" fill="#e63950"/><path d="m391 341.300781c3.300781 61.5-45.902344 110.699219-105 110.699219h-150c-8.402344 0-15-6.597656-15-15 0-41.398438 33.601562-75 75-75h90c8.402344 0 15-6.597656 15-15s-6.597656-15-15-15h-120c-41.398438 0-75-34.601562-75-76v-30l105 15h84.902344c57.898437 0 107.097656 45.699219 110.097656 100.300781zm0 0" fill="#e63950"/><path d="m391 341.300781c3.300781 61.5-45.902344 110.699219-105 110.699219h-15v-90h15c8.402344 0 15-6.597656 15-15s-6.597656-15-15-15h-15v-91h9.902344c57.898437 0 107.097656 45.699219 110.097656 100.300781zm0 0" fill="#ae2538"/><path d="m512 196c0 8.402344-6.597656 15-15 15h-91c-32.402344 0-60.902344-20.699219-71.101562-51.300781-1.796876-5.097657-7.796876-8.699219-14.398438-8.699219h-124.5c-8.402344 0-15 6.597656-15 15v60c0 6.898438 4.5 12.898438 11.101562 14.398438l3.898438.601562h-90c-8.402344 0-15-6.597656-15-15v-60c0-57.898438 47.101562-106 105-106h106.5c-.898438-4.796875-1.5-9.902344-1.5-15 0-8.402344 6.597656-15 15-15h60c23.699219 0 45.902344 11.398438 60 30 41.398438 0 76 34.601562 76 76 0 8.402344-6.597656 15-15 15h-61c-8.402344 0-15 6.597656-15 15v15h76c8.402344 0 15 6.597656 15 15zm0 0" fill="#ff637b"/><path d="m512 196c0 8.402344-6.597656 15-15 15h-91c-32.402344 0-60.902344-20.699219-71.101562-51.300781-1.796876-5.097657-7.796876-8.699219-14.398438-8.699219h-49.5v-91h31.5c-.898438-4.796875-1.5-9.902344-1.5-15 0-8.402344 6.597656-15 15-15h60c23.699219 0 45.902344 11.398438 60 30 41.398438 0 76 34.601562 76 76 0 8.402344-6.597656 15-15 15h-61c-8.402344 0-15 6.597656-15 15v15h76c8.402344 0 15 6.597656 15 15zm0 0" fill="#e63950"/><path d="m316 60c-3.835938 0-7.675781-1.464844-10.605469-4.394531l-30-30c-5.859375-5.859375-5.859375-15.351563 0-21.210938 5.859375-5.859375 15.351563-5.859375 21.210938 0l30 30c5.859375 5.859375 5.859375 15.351563 0 21.210938-2.929688 2.929687-6.765625 4.394531-10.605469 4.394531zm0 0" fill="#68544f"/></svg>